<?xml version="1.0" encoding="UTF-8"?>
<svg width="728.19" height="731.03" version="1.1" viewBox="0 0 192.67 193.42" xmlns="http://www.w3.org/2000/svg" xmlns:cc="http://creativecommons.org/ns#" xmlns:dc="http://purl.org/dc/elements/1.1/" xmlns:rdf="http://www.w3.org/1999/02/22-rdf-syntax-ns#">
 <defs>
  <filter id="filter5663" color-interpolation-filters="sRGB">
   <feGaussianBlur in="SourceGraphic" result="result1" stdDeviation="1.3"/>
   <feTurbulence baseFrequency="0.034" numOctaves="4" result="result0"/>
   <feDisplacementMap in="result1" in2="result0" result="result2" scale="19.6" xChannelSelector="R" yChannelSelector="G"/>
   <feColorMatrix result="result3" values="2 0 0 0 0 0 2 0 0 0 0 0 2 0 0 0 0 0 0.7 0"/>
   <feGaussianBlur in="SourceGraphic" result="result4" stdDeviation="1.1"/>
   <feComposite in="result4" in2="result3"/>
  </filter>
  <filter id="filter5701" color-interpolation-filters="sRGB">
   <feGaussianBlur in="SourceGraphic" result="result1" stdDeviation="1.3"/>
   <feTurbulence baseFrequency="0.034" numOctaves="4" result="result0"/>
   <feDisplacementMap in="result1" in2="result0" result="result2" scale="19.6" xChannelSelector="R" yChannelSelector="G"/>
   <feColorMatrix result="result3" values="2 0 0 0 0 0 2 0 0 0 0 0 2 0 0 0 0 0 0.7 0"/>
   <feGaussianBlur in="SourceGraphic" result="result4" stdDeviation="1.1"/>
   <feComposite in="result4" in2="result3"/>
  </filter>
 </defs>
 <g transform="translate(-23.586 -21.48)">
  <text x="433.79272" y="-928.56415" fill="#ff6600" font-family="sans-serif" letter-spacing="0px" stroke-width=".17058" text-align="center" text-anchor="middle" word-spacing="0px" style="line-height:1.25" xml:space="preserve"><tspan x="433.79272" y="-866.31439" font-size="113.72px" font-weight="bold" text-align="center" style="line-height:0.5"/><tspan x="433.79272" y="-781.02496" font-size="68.232px" letter-spacing="-5.0836px" text-align="center" style="line-height:5.00000007%"/><tspan x="433.79272" y="-695.73547" font-size="68.232px" letter-spacing="-5.0836px" text-align="center" style="line-height:5.00000007%"/><tspan x="433.79272" y="-610.44604" font-size="56.86px" font-weight="bold" letter-spacing="-5.0836px" text-align="center" style="line-height:5.00000007%"/><tspan x="433.79272" y="-525.15656" font-size="68.232px" letter-spacing="-5.0836px" text-align="center" style="line-height:5.00000007%"/></text>
 </g>
 <g transform="translate(-23.586 -41.98)">
  <text transform="matrix(.99806 0 0 1.0019 0 20.5)" x="121.21632" y="-40.578587" fill="#ff6600" font-family="sans-serif" font-weight="bold" letter-spacing="0px" opacity=".7" stroke-width=".046888" text-align="center" text-anchor="middle" word-spacing="0px" style="line-height:1.25" xml:space="preserve"><tspan x="121.21632" y="-23.467516" font-size="31.259px" text-align="center" style="line-height:0.5"/><tspan x="121.21632" y="-0.023332676" font-family="Impact" font-size="18.755px" letter-spacing="-1.3974px" text-align="center" style="line-height:100%"/><tspan x="121.21632" y="23.420851" font-family="Impact" font-size="18.755px" letter-spacing="-1.3974px" text-align="center" style="line-height:100%"/><tspan x="121.21632" y="46.865032" font-family="Impact" font-size="15.629px" letter-spacing="-1.3974px" text-align="center" style="line-height:100%"/><tspan x="121.21632" y="71.741882" font-family="Impact" font-size="21.167px" letter-spacing="0px" text-align="center" style="line-height:100%">28 OM</tspan></text>
  <path transform="translate(0 20.5)" d="m200.2 118.19a80.278 80.591 0 0 1-80.278 80.591 80.278 80.591 0 0 1-80.278-80.591 80.278 80.591 0 0 1 80.278-80.591 80.278 80.591 0 0 1 80.278 80.591z" fill="none" opacity=".3" stroke="#ff7f2a" stroke-dashoffset="31.855" stroke-linejoin="bevel" stroke-miterlimit="0" stroke-width="8.412"/>
  <g fill="#ff6600" font-family="sans-serif" font-size="18.755px" letter-spacing="0px" stroke-width=".046888" text-anchor="middle" word-spacing="0px">
   <text transform="matrix(.99806 0 0 1.0019 0 20.5)" x="121.21632" y="105.95264" opacity=".9" text-align="center" style="line-height:100%" xml:space="preserve"><tspan x="121.21632" y="120.71929" font-size="31.259px" font-weight="bold" text-align="center" style="line-height:100%"/><tspan x="121.21632" y="139.47464" font-size="32.605px" font-weight="bold" letter-spacing="-1.3974px" text-align="center" style="line-height:100%"/><tspan x="121.21632" y="158.91644" font-family="Impact" font-size="17.639px" font-stretch="condensed" letter-spacing="0px" text-align="center" style="line-height:100%">3 TOL  16 UNS</tspan><tspan x="121.21632" y="177.6718" font-size="18.755px" font-weight="bold" letter-spacing="-1.3974px" text-align="center" style="line-height:100%"/><tspan x="121.21632" y="196.42714" font-size="9.3777px" letter-spacing="-1.3974px" text-align="center" style="line-height:100%"/><tspan x="121.21632" y="215.18248" font-size="18.755px" letter-spacing="-1.3974px" text-align="center" style="line-height:100%"/></text>
   <text transform="matrix(.99806 0 0 1.0019 0 20.5)" x="121.21632" y="-15.888648" opacity=".9" text-align="center" style="line-height:100%" xml:space="preserve"><tspan x="121.21632" y="-1.1219953" font-size="31.259px" font-weight="bold" text-align="center" style="line-height:100%"/><tspan x="121.21632" y="17.63335" font-size="25.4px" letter-spacing="-1.3974px" text-align="center" style="line-height:100%"/><tspan x="121.21632" y="36.388699" font-size="25.4px" letter-spacing="-1.3974px" text-align="center" style="line-height:100%"/><tspan x="121.21632" y="55.144043" font-size="25.4px" font-weight="bold" letter-spacing="-1.3974px" text-align="center" style="line-height:100%"/><tspan x="121.21632" y="73.899391" font-size="25.4px" font-weight="bold" letter-spacing="-1.3974px" text-align="center" style="line-height:100%"/><tspan x="123.44874" y="100.14057" font-family="Impact" font-size="25.4px" font-weight="bold" letter-spacing="0px" opacity=".8" text-align="center" style="line-height:100%">0 UNTS </tspan><tspan x="121.21632" y="118.89592" font-size="25.4px" font-weight="bold" letter-spacing="-1.3974px" text-align="center" style="line-height:100%"/></text>
   <text transform="matrix(.99806 0 0 1.0019 0 20.5)" x="121.21632" y="71.519249" opacity=".7" text-align="center" style="line-height:1.25" xml:space="preserve"><tspan x="121.21632" y="88.630318" font-size="31.259px" font-weight="bold" text-align="center" style="line-height:0.5"/><tspan x="121.21632" y="112.0745" font-size="18.755px" letter-spacing="-1.3974px" text-align="center" style="line-height:100%"/><tspan x="121.21632" y="135.51869" font-size="18.755px" letter-spacing="-1.3974px" text-align="center" style="line-height:100%"/><tspan x="121.21632" y="158.96288" font-size="15.629px" font-weight="bold" letter-spacing="-1.3974px" text-align="center" style="line-height:100%"/><tspan x="121.21632" y="183.83972" font-family="Impact" font-size="21.167px" font-weight="bold" letter-spacing="0px" text-align="center" style="line-height:100%">OONAR</tspan><tspan x="121.21632" y="207.28391" font-size="9.3777px" letter-spacing="-1.3974px" text-align="center" style="line-height:100%"/><tspan x="121.21632" y="230.72809" font-size="18.755px" letter-spacing="-1.3974px" text-align="center" style="line-height:100%"/></text>
  </g>
  <path transform="matrix(.26356 0 0 .26458 1.9725 238.92)" d="m752.12-378.82a304.6 304.6 0 0 1-304.6 304.6 304.6 304.6 0 0 1-304.6-304.6 304.6 304.6 0 0 1 304.6-304.6 304.6 304.6 0 0 1 304.6 304.6z" fill="none" filter="url(#filter5663)" stroke="#d45500" stroke-dashoffset="31.855" stroke-linejoin="bevel" stroke-miterlimit="0" stroke-width="31.855"/>
  <path transform="matrix(.26356 0 0 .26458 1.9725 238.92)" d="m744.23-378.82a296.7 296.7 0 0 1-296.7 296.7 296.7 296.7 0 0 1-296.7-296.7 296.7 296.7 0 0 1 296.7-296.7 296.7 296.7 0 0 1 296.7 296.7z" fill="none" filter="url(#filter5701)" opacity=".8" stroke="#f60" stroke-dasharray="0, 16.09426524, 32.18853047, 48.28279571, 64.37706094, 80.47132618, 96.56559142, 112.65985665, 128.75412189, 144.84838712, 160.94265236, 177.03691761, 193.13118284, 209.22544808, 225.31971331" stroke-dashoffset="143.24" stroke-width="16.094"/>
  <text transform="matrix(.99806 0 0 1.0019 0 20.5)" x="121.21632" y="-11.579427" fill="#ff6600" font-family="sans-serif" font-weight="bold" letter-spacing="0px" stroke-width=".046888" text-align="center" text-anchor="middle" word-spacing="0px" style="line-height:1.25" xml:space="preserve"><tspan x="121.21632" y="5.5316443" font-size="31.259px" text-align="center" style="line-height:0.5"/><tspan x="121.21632" y="28.975826" font-family="Impact" font-size="18.755px" letter-spacing="-1.3974px" text-align="center" style="line-height:5.00000007%"/><tspan x="121.21632" y="52.42001" font-family="Impact" font-size="18.755px" letter-spacing="-1.3974px" text-align="center" style="line-height:5.00000007%"/><tspan x="121.21632" y="75.864189" font-family="Impact" font-size="15.629px" letter-spacing="-1.3974px" text-align="center" style="line-height:5.00000007%"/><tspan x="121.21632" y="99.308372" font-family="Impact" font-size="15.629px" letter-spacing="-1.3974px" text-align="center" style="line-height:5.00000007%"/><tspan x="121.21632" y="136.54773" font-family="Impact" font-size="35.278px" letter-spacing="0px" text-align="center" style="line-height:100%">4327 TU</tspan></text>
  <path d="m87.701 54.447c-2.7826 3.4047-5.2533 4.9993-0.32068 8.5926 4.5134-1.4286 7.8688-4.7207 3.1654-7.9407 0.083-1.5746-2.2159 0.43319-2.8447-0.65192zm52.541 0.41393c-2.3367 1.9145-9.4231 6.7395-3.2995 9.249 5.137 3.6725 9.0596-8.6756 3.2995-9.249zm-25.026 1.2831c-2.4484 1.0045 1.558 1.7104 0 0zm29.181 1.5596c-2.399 1.9025 2.9562 1.7269 0 0zm5.349 0.56069c-6.1176-1.1722 0.25217 4.9233 0.22996 1.847 0.94176-0.28671 0.90281-1.8969-0.22996-1.847zm-66.744 0.19224c-2.6058 2.5466 3.0887 1.2939 0 0zm27.021 0.0088c-1.6894 0.80357 1.1388 1.0805 0 0zm2.9114 0.04703c-0.51122 0.57414 0.98446 0.35215 0 0zm53.635 0.25218c-5.3845 2.1914 4.7952 4.059 0 0zm-85.352 0.1111c-2.3877 1.057 2.7434 1.4969 0 0zm45.591 0.25218c-0.90606 0.42894 0.7929 0.67505 0 0zm33.689 0.44287c-5.1462 0.27647-5.6392 2.7242-0.13073 0.70641 1.0143 0.2551 1.2662-0.96654 0.13073-0.70641zm-52.254 0.4129c-1.0799 0.59616 1.3043 0.75296 0 0zm8.709 0.11627c-4.2085 0.61885 2.9948 3.3022 0 0zm26.507 0.09663c-2.0578 1.1366 1.8885 1.4563 0 0zm-33.869 1.2206c-2.0738 1.2043 1.7419 1.3179 0 0zm3.0851 0.02997c-4.0154 1.1231 0.28628 6.9231 0.92346 1.604-2.2349-0.41262 1.086-1.0909-0.92346-1.604zm-9.6511 0.01394c-5.1317 4.1384 6.9618 2.3426 0 0zm-21.94 0.90434c-1.9915 0.97938 1.759 1.2236 0 0zm71.281 0.17052c-1.7522 1.1151 1.6409 1.6177 0 0zm-6.1293 0.47387c-2.3877 1.057 2.7434 1.4969 0 0zm16.095 0.10852c-3.6272 0.15391 0.46449 0.81418 0 0zm-65.749 0.17105c-3.1066 2.0558 2.9867 2.3699 0 0zm69.12 0.08372c-1.5336 0.95716 2.2279 1.4509 0 0zm-72.719 1.5508c-2.7849 1.8864 2.7557 1.9116 0 0zm17.983 0.3235c-3.984 1.641 3.8947 1.7129 0 0zm17.26 0.0956c-3.3493 1.2773 2.5361 3.4804 0 0zm-51.451 0.13849c-1.1284 0.57132 1.8083 1.3345 0 0zm26.207 0.0083c-1.6956 2.604 2.5285 1.0247 0 0zm-16.393 0.06925c-2.3931 3.192 3.1956 1.8485 0 0zm-8.5018 0.16123c-2.1043 1.2817 1.8591 1.624 0 0zm70.368 1.3772c-3.3616 2.6145 4.4508 3.1294 0 0zm-39.818 0.10594c-3.1763 0.72886 0.99786 1.6103 0 0zm-16.339 0.0367c-0.90577 0.42769 0.79152 0.6764 0 0zm-10.767 0.04754c-0.70593 0.98547 0.78537 0.45525 0 0zm63.618 0.1664c-4.8877 3.6167 2.9976 3.6944 0 0zm-46.328 0.05738c-1.2882 0.6916 1.8261 0.84314 0 0zm-11.056 0.20309c-3.0284 1.031 2.3025 2.2398 0 0zm54.773 0.02273c-1.7685 0.96482 2.3087 0.96015 0 0zm-31.021 1.0888c-6.4599 1.9528 0.73444 9.7425 1.5511 2.3579-0.23472-0.97553-0.9608-1.6212-1.5511-2.3579zm-12.39 0.62677c-2.0683 1.8559 2.5102 1.1045 0 0zm2.9621 0.3974c-1.1023 0.77567 1.1968 0.30373 0 0zm2.2386 0.01601c-4.9359 3.5628 3.7294 2.3689 0 0zm-28.885 0.13436c-4.1637 2.9531 4.0661 3.1451 0 0zm49.383 0.17673c-2.51 0.4246 2.2643 0.38044 0 0zm-29.81 0.63872c-7.5362 1.1424 0.64628 9.0706 1.4827 2.0413l-0.29105-1.5364-1.1917-0.50488zm-23.097 0.05064c-3.1552 1.8273 3.4118 2.1097 0 0zm9.7658 0.19275c-2.9173 1.397 2.3514 2.0733 0 0zm37.265 0.06201c-7.1494 2.7696 6.6006 10.394 2.1342 1.2299l-0.9965-0.96031-1.1377-0.26959zm-17.789 0.19585c-4.3403 2.4341 4.1276 2.5588 0 0zm51.025 0.03307c-3.3868-0.17734-2.7755 5.0936-5.6787 0.57496-6.886 0.37277-0.14017 9.1359 2.5414 3.3504 3.508 5.843 10.841-2.7198 3.1373-3.9253zm-75.472 1.3493c-2.5729 4.6296-9.6904 0.2126-6.0961 4.2281 1.9302 7.1809-14.978-0.45977-7.0478 4.3667 6.4678-0.58242-1.1802 7.5507 5.6501 9.5464 2.274-0.784 8.3426 0.71988 4.3256-2.1186-1.3335-1.9602-0.68928-3.791 2.788-3.3249 2.6474-2.1529 4.5249-4.9619 8.8273-1.4747 2.9397-0.9131 8.4465 4.1843 5.5345-2.1239-3.943 5.6087 1.771-11.547-6.5216-7.1603-3.1955 1.5294-4.8997 0.315-7.46-1.9389zm95.542 0.12247c-1.0798 0.59542 1.3037 0.75385 0 0zm-68.141 0.13798c-1.604 0.29829 0.64142 0.78583 0 0zm-25.915 0.34727c-1.0798 0.59542 1.3037 0.75384 0 0zm-11.257 0.32504c-0.89147 0.7475 1.2513 0.66323 0 0zm34.77 0.13333c-3.2727 1.9227 2.7024 2.2403 0 0zm68.406 1.0278c-1.1163 1.5257-5.8714 0.87316-2.3373 2.2862 0.70056 1.6689 6.6681 0.67544 2.3373-2.2862zm-61.201 0.29662c-6.7215 4.3506 8.0862 2.5709 0.84868 6.4471-1.9683 4.1368-12.405 3.1423-8.903 9.4956 2.3943-4.3304 2.4496 5.6175 4.1329-0.52261-2.2905-4.7627 3.3676 6.0218 6.3362 6.0324-0.48579 7.5415 7.7402 7.5827 6.0591 0.49041 2.3752 2.6656 2.3758 6.6583 3.78 7.235 2.7318 3.3496 4.6016-6.3482 1.7546-9.0204-2.6966-5.8644 5.1282 2.677 0.31471-3.1042-0.32836-2.9668 6.5113-4.9971-0.0109-7.5473-7.0907 1.0241-5.8836-9.7077-11.327-8.8372-1.3914 2.4068-1.3284-0.84283-2.9853-0.66866zm-9.8852 0.23564c-0.70594 0.75073 1.1735 0.11049 0 0zm1.4955 0.36329c-2.8238 1.4785 2.3476 2.1311 0 0zm27.459 0.66249c-1.3708 0.96746 1.1054 1.0899 0 0zm-60.587 0.22997c-2.3762 1.3583 2.3322 1.2024 0 0zm36.619 0.07338c-2.1409 4.4602 3.0868 2.7401 0 0zm-6.441 0.43822c-0.73761 0.82416 1.3521 0.31773 0 0zm45.889 0.51056c-5.3794 3.92 5.5939 3.5065 0 0zm-50.137 0.70435c-0.70595 0.74965 1.1732 0.11139 0 0zm12.778 0.21342c-0.83019 0.67915 1.1544 0.48466 0 0zm-6.613 0.22324c-2.9737 1.3063 2.3851 2.2451 0 0zm62.925 0.59531c-3.0341 3.8011 4.3782 1.3105 0 0zm-104.88 1.3431c-7.102 1.1977-1.4044 10.109-0.98143 9.1214-9.6877 1.8137-0.92006 12.469 2.9922 4.9166-2.234-5.6196 7.7227-9.498 0.54074-13.931-0.84614 0.06168-1.7254 0.14938-2.5515-0.1074zm88.241 0.10232c-2.4459 0.98414 1.858 2.0535 0 0zm-3.1424 0.74259c-2.8397 2.3421 2.7514 2.0129 0 0zm7.8274 0.21498c-1.3556 0.79328 1.2461 0.9013 0 0zm-45.027 0.339c-0.95965 2.6861 2.5404 0.34163 0 0zm62.228 0.08423c-8.1437 1.5124 0.6794 8.3195-3.8833 12.219 0.47441 11.744 19.722-0.65983 7.557-4.5527 2.5568-3.021 0.67204-8.2448-3.6737-7.6667zm-66.809 0.2806c-6.3102 4.5483 6.1324 3.647 0 0zm-37.032 0.59634c-0.83023 0.67859 1.1546 0.48362 0 0zm31.995 0.65733c-3.3062 1.2865 1.5523 2.3777 0 0zm38.025 0.16795c-5.065 1.1907-4.9065 11.961 0.13849 5.2663 3.8023-0.95862 3.9752-4.9057-0.13849-5.2663zm-54.027 0.34882c-4.8999 3.4607 5.3022 5.6619 0.46406 9.9105 3.6508 3.0801-0.92486 8.8317 0.02739 10.401 4.6265 1.559 14.699-1.35 10.347-8.3657-2.6508-0.18341-6.7325 0.98378-2.9967-2.6354 0.50016-3.0519-6.619-2.1426-2.0351-5.3543-0.99168-0.10732-3.4749-3.1494-5.807-3.9561zm71.022 0.01085c-7.4155 1.7348 0.93407 8.8696 2.8247 3.5147-0.27505-1.8679-0.46522-3.4197-2.8247-3.5147zm-85.591 0.11369c-1.2635 1.2926 1.5934 1.1807 0 0zm21.613 0.6904c-3.2229 1.6538 1.107 3.9129 0 0zm8.1075 0.22583c-0.66675 0.8093 1.3201 0.42332 0 0zm-1.1105 0.36018c-2.0213 0.6916 1.5493 1.2723 0 0zm66.442 0.21136c-6.866 2.567 5.4271 8.2775 2.4309 0.86202l-0.57519-0.61501zm-68.188 0.57056c-6.052 3.107 5.7236 11.048 3.3207 2.8706-0.32232-2.1444-1.2368-2.9644-3.3207-2.8706zm-2.1063 1.1116c-1.6513 1.1158 1.5095 1.0333 0 0zm47.479 1.7312c-1.7512 1.3974 1.7257 1.0152 0 0zm17.652 0.19327c-8.8963 4.4706 8.4124 7.3831 1.5691 0.82618l-0.86264-0.63392-0.70642-0.19224zm-91.93 0.12919c-3.6589 1.5886 3.0776 3.0618 0 0zm23.138 0.24391c-2.4237 1.819 2.31 1.4169 0 0zm77.331 0.24701c-1.8336 0.90078 1.5798 1.1966 0 0zm-21.673 0.50023c-7.9018 1.4233 2.6758 8.1539 3.4289 2.4884-1.0478-1.0487-2.2312-1.2268-3.4289-2.4884zm-7.307 0.47026c-3.1171 2.1497 2.9815 2.2132 0 0zm-68.054 0.48834c-1.7458 1.2889 1.0909 0.54912 0 0zm3.9321 0.0925c-5.3689 3.4453 4.9052 3.3561 0 0zm29.74 0.0036c-1.2005 0.87069 1.3078 0.76398 0 0zm35.761 0.58808c-2.097 1.3691 2.0233 1.8065 0 0zm12.324 0c-6.8948 5.0873 7.3608 3.9428 0 0zm-52.688 0.73536c-4.4005 1.0231-4.7783 8.54-0.06925 4.2519 2.4194 1.0431 2.1052-4.3486 0.06925-4.2519zm65.66 0.04599c-4.0906 2.4524 3.8543 2.4937 0 0zm-23.92 0.98237c-8.1891 2.2108 4.4173 9.3955 2.1601 1.1989l-0.95994-0.89222zm-63.05 0.09147c-6.3425 3.3374 6.0032 5.8487 0 0zm31.282 0.65629c-1.6308 1.1387 1.6799 0.59906 0 0zm-26.481 0.1235c-2.3835 1.4698 2.5382 1.5357 0 0zm-10.846 0.02585c-1.8093 2.1704 2.3685 0.93363 0 0zm-6.4053 0.40824c-4.4875 3.7315 4.6109 2.1965 0 0zm80.724 0.67541c-2.6544 1.234 1.9626 1.302 0 0zm-95.237 0.3483c-0.66674 0.80931 1.3201 0.42332 0 0zm19.552 1.2537c-4.4074 3.5594 5.0821 2.5935 0 0zm6.5872 0.09095c-1.4846 1.7875 2.0275 0.93113 0 0zm100.04 0.06459c-1.0813 0.59466 1.3053 0.75372 0 0zm-126.77 0.10232c-5.8687 2.7462 4.864 4.0551 0 0zm81.303 0.01497c-1.0836 0.89426 0.86603 0.64785 0 0zm56.315 0.03411c-3.9147 2.9589 3.8122 2.2854 0 0zm-86.606 0.25063c-1.2644 1.2923 1.5926 1.181 0 0zm-21.127 0.7214c-0.90722 0.42706 0.79182 0.67699 0 0zm-5.1868 0.45165c-6.019 1.6726 2.6424 14.991 2.2221 5.0106 2.2621-1.6494 0.34478-5.1424-2.2221-5.0106zm112.23 0.971c-0.88808 0.7602 1.0358 0.73153 0 0zm-82.338 0.40411c-5.8841 0.55863-2.174 12.082 0.40733 6.2754 3.4048-1.2631 3.6734-6.0324-0.40733-6.2754zm50.946 0.0475c-3.2847 2.382 3.7057 2.4463 0 0zm-34.225 0.0429c-2.0625 2.0296 2.3038 1.2762 0 0zm46.94 0.49351c-0.59896 0.53472 1.3298 0.0422 0 0zm7.1691 0.0269c-1.0807 0.59385 1.3049 0.75406 0 0zm-46.225 0.10541c-2.0272 1.3232 1.8828 1.3218 0 0zm-19.624 0.67232c-3.4392 1.9829 3.3454 2.9572 0 0zm73.292 0.25321c-1.3688 0.43899 0.6919 0.83829 0 0zm-60.821 4e-3c-1.3385 1.7095 2.0165 1.8864 0 0zm13.539 0.23616c-8.3376 3.6392 2.0055 12.085 5.3408 5.4674 6.9046 0.77517 1.9912-7.8086-1.7722-4.6198-1.0759-0.61596-2.3482-0.80059-3.5686-0.84751zm-64.389 0.35553c-2.9447 1.6074 2.4588 1.9695 0 0zm49.321 0.032c-0.83023 0.67859 1.1546 0.48363 0 0zm-39.783 0.24908c-7.7638 0.18122 4.9049 3.7576 0 0zm18.488 0.0785c-1.3566 0.79324 1.2463 0.90153 0 0zm-4.0339 0.20619c-2.4391 1.6872 2.4933 1.6268 0 0zm-28.541 0.0925c-2.9834 2.5553 3.2796 1.7601 0 0zm54.56 0.0961c-1.0534 1.0583 1.5914 0.68445 0 0zm-56.644 0.0868c-4.5769 4.0046 1.8918 3.0163 0 0zm88.829 0.10801c-1.7517 1.3967 1.725 1.0152 0 0zm-30.311 0.26923c-2.3343 1.1431 1.9637 1.7366 0 0zm27.904 0.14004c-6.717 4.7535 7.4009 3.7645 0 0zm25.52 0.15555c-2.3833 1.2878 2.9934 1.851 0 0zm-47.869 0.14052c-1.7847 2.4164 2.7694 0.86362 0 0zm19.61 0.1664c-1.0922 1.1239 1.4643 0.67349 0 0zm-56.825 0.54518c-1.1995 0.56114 0.86291 0.79733 0 0zm95.885 0.0104c-1.4948 0.57462 1.0843 1.4965 0 0zm-98.425 0.24184c-0.9491 0.33909 0.49334 0.55453 0 0zm67.14 0.11317c-1.3061 0.40894 0.51051 1.0374 0 0zm-60.255 0.10026c-1.6512 1.1167 1.5097 1.0326 0 0zm-26.506 0.0594c-6.6196 2.8814 5.4899 7.0592 1.311 0.50453zm16.316 0.0222c-1.9792 1.1757 1.8762 1.3332 0 0zm-5.1139 0.0398c-8.8772 3.1255 4.9176 11.228 2.2484 2.1012l-1.217-1.5079zm40.309 0.18087c-0.90576 0.42864 0.7918 0.67513 0 0zm-48.223 0.3395c-2.1146 1.8292 2.5731 1.1836 0 0zm-24.274 0.0667c-2.9959 2.5717 3.3801 1.8141 0 0zm50.22 0.11576c-4.0855 4.4012 6.4263 1.1853 0 0zm90.997 0.0532c-1.1375 1.4179 2.0716 0.47623 0 0zm-1.4816 0.30438c-5.9066 5.0199 8.3356 9.3668 5.4953 3.5367-1.5251-1.6014-3.3154-2.9546-5.4953-3.5367zm-99.056 1.4469c-6.7401 2.7643 4.3714 6.7571 1.8819 0.27348l-0.85664-0.21147zm55.667 0.31057c-2.427 1.6923 2.5395 1.6528 0 0zm-97.694 0.0734c-3.506 3.9051 5.5093 13.441 5.3526 3.7156-0.62755-2.2875-3.6795-2.4596-5.3526-3.7156zm139.18 0.0987c-2.7818 1.6498 2.7613 1.4156 0 0zm-53.842 0.15607c-2.2237 1.8927 2.0355 1.0827 0 0zm-3.6918 0.0491c-0.90607 0.42893 0.79289 0.67506 0 0zm55.475 0.0589c-6.7628 3.6196 5.422 4.044 0 0zm-69.137 0.25115c-3.9818 1.8451 3.1777 2.8056 0 0zm13.951 0.23978c-0.51192 0.5741 0.984 0.35249 0 0zm-26.267 0.062c-4.6827 2.4912 2.6008 9.8435 2.0995 2.7855-1.1986-0.60052-0.86199-2.3764-2.0995-2.7855zm7.0471 0.12609c-2.8579 2.0705-9.6571 8.6343-3.7192 12.406-4.2957 1.1093-0.36039 10.13 3.3583 4.1936 1.3156-4.7195-3.0565-2.5208 2.1034-6.4687 1.3166-5.4582-3.6933-5.409-0.22066-9.1901l-0.97359-0.82941-0.54828-0.1111zm45.273 0.21084c-7.3115 5.9058 7.7031 1.6917 0 0zm-30.09 0.22066c-6.0278 2.8577 4.2172 4.9244 0 0zm42.209 5e-3c-4.0343 1.4711 2.7431 3.6171 0 0zm-38.357 0.062c-2.8894 3.1978 6.2022 3.0841 0 1e-5zm-54.797 0.0997c-4.6327 3.838 2.2428 3.5446 1.6038 0.62044-0.86575 1.0501-0.6716-0.91577-1.6038-0.62044zm78.144 0.0987c-1.1167 0.98421 1.5092 0.66973 0 0zm-109.35 0.21859c-2.6787 1.7331 2.9568 1.6615 0 0zm76.346 0.13436c-4.3074 1.5155-10.045 12.064-0.71003 10.214 0.66824-2.9506 7.1242-8.9208 0.71003-10.214zm-79.326 0.14676c-9.0167 2.6577 3.6486 1.8152 0 0zm22.26 0.0956c-6.9597 5.8884 7.3327 5.4188 0.90136 0.29049zm79.548 0.10697c-5.1289 1.1213-5.0868 4.8207-0.30188 5.6765-0.291 5.356 7.016-6.3451 0.30188-5.6765zm7.4109 0.79375c-5.554 3.579 2.0196 5.2044 3.7148 2.1114 3.406-2.8368-3.0333-0.75143-3.7148-2.1114zm-12.824 0.0718c-1.0919 0.87992 1.4361 0.56824 0 0zm-66.067 0.82372c-1.2006 0.87134 1.3078 0.76264 0 0zm55.086 0.56741c-2.0151 1.7695 2.2978 1.3548 0 0zm-37.671 6e-3c-1.6513 1.1158 1.5095 1.0333 0 0zm70.185 0.015c-5.96 2.597 1.8307 6.9032 3.5736 10.031 7.8535 3.0773 6.271-11.709-0.97786-7.2645 0.10424-1.5336-1.0216-2.8255-2.5957-2.7668zm16.171 0.0481c-3.196 1.8615-4.8134 10.923 1.5446 7.0688-0.46899-2.1622 1.4538-6.9286-1.5446-7.0688zm-46.077 0.83819c-4.1879 2.3274 3.9502 3.806 0 0zm-72.705 0.17105c-7.2302 3.7732 6.7905 4.1905 0 0zm43.582 0.67179c-7.6227 2.5164 0.32766 10.996 3.3192 3.5371 0.18079-1.836-1.4676-3.6066-3.3192-3.5371zm-26.313 0.32763c-2.7335 2.0016 2.6525 1.447 0 0zm21.618 0.96739c-1.0818 0.59358 1.3054 0.75589 0 0zm32.288 0.0403c-3.153 2.2256 3.0434 1.6477 0 0zm19.531 0.03c-0.90606 0.42894 0.79289 0.67506 0 0zm-16.349 0.71986c-8.1669 1.708 4.7132 10.647 2.1647 1.24l-0.8871-0.88661zm-44.873 0.14624c-1.132 0.10692 0.68133 0.72351 0 0zm-10.723 0.0724c-3.9727 2.2403 3.1454 2.5065 0 0zm65.536 0.1142c-3.8584 2.1196 2.6192 2.257 0 0zm-73.135 0.0336c-2.7382 3.13 3.9749 2.5927 0 0zm68.491 0.13178c-1.5911 0.8705 1.3233 1.2787 0 0zm49.335 0.64647c-2.5258 3.2111 3.5569 1.167 0 0zm-130.04 3e-3c-10.586 3.3798 2.2788 12.456 5.3036 3.7559-0.99726-1.1044-3.1391-3.5756-5.3036-3.7559zm39.436 0.66418c-3.3593 1.6614 2.6496 2.2619 0 0zm51.765 0.46715c-0.86779 0.79251 0.95648 0.83217 0 0zm-104.47 0.69867c-1.5648 2.371-8.1751 4.7942-3.1979 7.8262 2.1613-0.37799 8.3418-6.422 3.1979-7.8262zm84.738 0.11679c-2.3304 1.185 1.8356 1.544 0 0zm-39.544 0.11627c-0.90722 0.42706 0.79182 0.67699 0 0zm1.6004 0.32762c-0.90615 0.42794 0.79149 0.67636 0 0zm70.091 0.27596c-4.0518 1.9941 3.3278 3.1125 0 0zm-64.858 0.23564c-4.9695 4.209 5.5399 2.3997 0 0zm42.241 0.67955c-2.3343 1.143 1.9637 1.7366 0 0zm-53.736 0.0145c-7.6519 2.3341 4.4322 9.3688 2.3172 1.4407-0.24052-1.1148-1.3697-1.4195-2.3172-1.4407zm68.043 0.11111c-1.4916 3.2537-11.487-0.81222-6.7119 6.0628 3.7924 0.89547 7.8453-2.7194 7.2326-5.9454l-0.52076-0.11735zm40.416 0.0506c-5.6388 2.7669-4.7683 11.055 0.6289 14.171-6.9077 8.7725 12.463 9.9479 5.8438 0.38994-8.7267 0.40103 2.0675-6.4061-3.3194-9.1144-4.162 1.6846 3.5073-5.6865-3.1533-5.4462zm-19.385 0.08734c-4.4927 2.5449 4.1626 3.3694 0 0zm-102.34 0.20258c-3.0295 1.0317 2.3028 2.2381 0 0zm48.578 0.18758c-5.0465 0.41147-11.843 10.397-3.3428 10.486 7.5754 4.189 12.682-10.305 3.3428-10.486zm-45.889 0.59376c-3.9301 2.9169 3.9577 2.3236 0 0zm31.42 0.092c-1.6888 0.80265 1.1372 1.0814 0 0zm-57.807 0.0393c-2.1843 1.6908 2.2054 1.397 0 0zm86.6 0.18293c-3.6998 1.1769-11.189 1.9123-8.7204 8.4775-5.8964 2.502 3.211 5.9121 5.8627 3.3285 4.398-0.58736 5.4972-9.8478 2.8577-11.806zm-56.816 0.0104c-7.2691 3.5726 6.8379 6.6746 1.3059 0.34313zm24.748 0.30437c-1.1289 0.57192 1.8098 1.3339 0 0zm54.034 0.0982c-1.6448 0.8124 2.0596 1.6376 0 0zm5.3041 0.092c-1.3288 0.40565 1.2829 0.8523 0 0zm-99.547 0.0579c-2.1945 1.7192 2.2589 1.7986 0 0zm105.56 0.0791c-1.2363 1.2036 1.7093 1.1128 0 0zm-131.04 0.67954c-3.7711 2.4015 5.1408 8.2011 2.1523 1.9482-0.89379-0.33411-0.99678-2.0065-2.1523-1.9482zm116.93 0.24547c-2.8719 2.4805 3.0066 1.4161 0 0zm28.042 0.0966c-9.1358 2.8458 6.6799 9.2657 2.2068 0.9684l-0.93189-0.63974zm-107.97 0.66714c-1.7145 0.79861 1.0905 1.2435 0 0zm70.856 0.43719c-1.5154 1.2282 1.2962 1.1655 0 0zm30.735 0.34003c-2.9878 1.2475-0.51651 4.9756 0.0382 6.953 9.6156 2.7593 2.692-4.9191-0.0382-6.953zm-14.504 0.3762c-2.2048 1.8586 2.5622 1.0288 0 0zm-104.38 0.16123c-5.1546 2.5539 4.2314 3.5366 0 0zm41.769 0.18293c-1.0847 0.89339 0.86519 0.64873 0 0zm40.581 0.3483c-4.2619 4.0154 2.9755 5.0521 0 0zm13.016 0.28681c-1.7323 4.5389 5.024 1.6325 0 0zm-82.815 0.076c-4.375 2.8517 4.1453 2.9273 0 0zm85.668 0.45579c-0.90575 0.42864 0.7918 0.67513 0 0zm-4.6328 0.15038c-3.3907 2.505 3.8284 2.0815 0 0zm-57.951 0.0548c-3.5239 0.89322-6.8593 0.63264-2.1813 3.2432 2.3055 4.1937 6.8692-2.6696 2.1813-3.2432zm-31.093 0.0594c-3.3455 1.9738 2.6189 1.5838 0 0zm108.79 0.15968c-2.5402 2.9056 3.6486 1.5585 0 0zm-70.728 0.14831c-3.8869 1.4156-4.3167 11.532 1.8902 8.7767 3.9145-1.7765-1.8122-4.6832-0.31875-7.3263-0.22304-0.69955-0.7882-1.3879-1.5714-1.4504zm62.975 0.37052c-5.9449 3.5112 2.6114 6.7578 2.2855 0.52474-0.8133-0.37626-1.2182 0.10166-2.2855-0.52474zm-107.51 0.50282c-4.9769 3.2025 4.8695 3.3824 0 0zm41.575 7e-3c-1.0798 0.59542 1.3037 0.75383 0 0zm107.13 0.0217c-1.2241 0.67597 0.73495 0.57771 0 0zm-48.896 0.48886c-1.8591 1.7745 2.8997 1.0847 0 0zm-1.5958 0.56586c-0.8885 0.76032 1.0356 0.73195 0 0zm30.482 0.0879c-4.3902 2.8213 4.197 3.0111 0 0zm-16.458 0.0103c-3.0952 1.7787 2.9034 1.8207 0 0zm-79.573 0.69712c-1.0922 1.1239 1.4643 0.67347 0 0zm-9.2284 0.0651c-2.224 1.2334 1.9507 1.3541 0 0zm-10.462 0.16846c-0.48519 0.46771 1.4699 0.50965 0 0zm45.424 0.53692c-8.7764 2.8894 5.1356 11.264 2.2442 2.8113-0.21728-1.1869-0.95506-2.5472-2.2442-2.8113zm-60.036 0.28112c-2.0162 0.90623 1.6766 1.1679 0 0zm145.1 0.23668c-1.0136 1.0159 1.1433 0.47935 0 0zm-54.605 0.13952c-2.1226-0.0767-7.1141 2.8097-1.9531 3.3823 0.66316-1.2084 6.0154 0.0638 1.9531-3.3823zm-68.697 0.18242c-1.1547 0.29354 1.063 0.74812 0 0zm73.668 0.24702c-3.0785 2.1831 3.4771 2.332 0 0zm-40.53 0.41496c-6.075 1.7781 5.5668 5.6667 0 0zm-59.947 0.15141c-1.1139 0.67307 0.71757 0.8802 0 0zm33.558 0.22479c-1.7202 0.56638 1.2547 0.70278 0 0zm41.068 0.23926c-1.5407 1.569 1.9974 1.0456 0 0zm63.134 0.20516c-1.1224 1.6286 2.3068 0.54211 0 0zm-108.1 0.56586c-5.6052 3.0014 5.0511 3.7106 0 0zm-16.229 0.14004c-7.5358 5.7608 6.8548 5.6718 0 0zm106.63 0.0796c-9.1583 0.79375 1.089 6.9629 4.1764 5.3636-0.33604-1.8555-1.5738-4.5342-4.1764-5.3636zm-46.07 0.52452c-2.4162 1.9341 3.26 1.5772 0 0zm30.39 0.0987c-4.6344 2.3251 3.5641 3.3186 0 0zm-17.737 0.0227c-3.8362 1.2364 3.1801 2.9239 0 0zm55.776 0.13642c-3.0765 2.5403 3.7845 1.7787 0 0zm-28.055 0.0532c-1.6612 1.0511 1.2865 0.48525 0 0zm16.012 0.18138c-5.465 3.6031 5.9602 3.5467 0 0zm-1.8552 0.20258c-1.5963 1.0133 1.0831 0.6783 0 0zm-49.647 0.0667c-1.6174 2.7615 4.5671 0.92241 0 0zm-43.97 0.31212c-5.7427 3.2638 5.5074 4.5912 0 0zm-3.6272 0.0481c-2.8996 3.4506 4.0709 1.5808 0 0zm75.831 0.0506c-5.7347 3.8272 4.4652 2.532 0 0zm7.8006 0.2899c-3.8042 4.5888 3.2838 2.7188 0 0zm44.023 0.91829c-5.4127 2.2828 2.9988 3.2975 0.20929 0.029l-0.20929-0.0289zm-17.534 0.0419c-0.74412 0.91468 1.155 0.6968 0 0zm-1.355 0.11162c-5.1061 1.3472 3.1629 3.3611 0 0zm-60.852 0.0419c-1.596 1.0134 1.0831 0.6779 0 0zm47.379 0.23513c-1.85 1.7888 3.6037 0.68261 0 0zm-30.518 7e-3c-5.5454 3.9665 6.2819 3.121 0 0zm-80.53 1e-3c-2.4129 4.5598 2.9468 3.1594 0 0zm96.289 0.21394c-2.2687 1.4459 2.1691 1.7734 0 0zm-102.32 0.0925c-10.318 1.3477 0.90846 16.228 4.555 6.0007 0.59524-2.7838-1.4351-6.2355-4.555-6.0007zm36.43 0.0124c-10.455 4.6225 11.412 10.076 7.1799 1.82-3.0691-2.0224-4.4325 1.4359-7.1799-1.82zm97.213 0.18087c-1.7492 1.035 1.5428 0.89294 0 0zm-101.92 0.077c-2.7266 4.6186 4.1952 3.5754 0 0zm46.35 0.0631c-4.0985 2.3098-2.2379 5.5961-7.3866 5.92-2.8238-1.5533 1.665-1.7547-1.667-3.0674-6.4055-7.6785-10.831 10.776-1.0237 4.827 3.4394-1.9644-1.1274 3.8908 1.7952 4.7165 0.43448 5.8006 11.463-1.8025 7.8259-5.8751 4.4216 0.0512 5.4018-6.4203 0.4563-6.521zm-68.057 0.22272c-3.7532 2.9174 4.016 2.3054 0 0zm59.008 3e-3c-1.6643 1.2947 1.7917 1.372 0 0zm-77.014 0.42633c-2.604 2.5469 3.0888 1.2943 0 0zm136.57 0.31936c-1.6924 1.0108 1.7147 0.99425 0 0zm-16.683 0.49816c-3.1098 0.66822 1.511 3.9876-2.6341 2.2258-1.9666 5.3777 3.1701 0.40043 4.4626 4.048 3.2853-0.43454 2.6379 4.6426 6.9795 3.3645 6.35-3.3954-5.9963-3.1397-3.7463-8.2078-1.1156-1.7781-3.4157-0.75086-5.0617-1.4304zm-15.298 0.45786c-1.9934 0.97858 1.7589 1.2243 0 0zm27.582 0.21859c-4.2275 3.2423 4.6781 2.7036 0 0zm-25.002 0.0227c-1.2021 0.86978 1.308 0.76452 0 0zm-7.6321 0.24805c-6.9238 2.9699 5.2188 5.5026 0 0zm-63.514 0.0444c-2.9499 2.9954 3.7531 1.3296 0 0zm103.18 0.0796c-3.4643 0.0228-4.524 2.7197-5.0794 4.3072-3.125 2.9795-2.4502 8.6802-8.3197 6.9232-0.0264 4.2734-9.3436-0.57976-4.154 4.0179 3.6702-4.7799 4.2383 2.0896 2.9759 4.1551 2.5999-0.62664 7.102-0.53497 9.1936-3.0974 5.2929 2.9638 5.7285-5.0992 10.013-5.8906-3.4424 0.16434-1.9362 0.62339-3.3402-4.018 2.5702-0.49679 11.552-4.2809 4.6099-3.3825-3.907 1.4351-6.7857 3.9648-3.3395-1.2901-0.2842-1.2863-1.4541-1.6124-2.5594-1.7247zm-125.05 0.13849c-1.6255 1.2284 1.8819 0.9642 0 0zm13.858 0.12661c-1.8518 1.6554 2.5584 0.82856 0 0zm2.2371 0.077c-3.3133 1.879 3.2444 2.2673 0 0zm28.918 0.0801c-4.1128 0.47473-5.4477 10.944-0.99115 5.3139 3.8832 1.2102 5.3773-5.1504 0.99115-5.3139zm-37.055 0.0212c-6.7232 0.27151 2.2843 7.3065 0 0zm46.167 0.34003c-2.0578 1.1354 1.8883 1.4562 0 0zm-13.092 0.17674c-3.1105 1.744 2.4321 0.77485 0 0zm-1.7193 0.50643c-4.2765 1.8329 3.884 2.8466 0 0zm-37.879 0.0439c-6.7086 1.5262 1.7805 5.3449 0.41184 6.4687 0.98578 2.2916 6.4686-3.3037 1.8554-5.1465l-0.89215-0.88236zm16.636 0.031c-3.9862 2.9654 4.8776 2.0754 0 0zm-2.0712 2.4898c-3.9365 1.235 2.0025 1.603 0 0zm15.513 0.30489c-1.4054 0.98079 1.2227 0.97145 0 0zm53.018 0.31108c-3.0598 3.1382 3.7621 1.625 0 0zm11.555 0.69556c-1.1231 1.0321 1.5283 0.71895 0 0zm-97.333 0.17519c-2.1044 1.2828 1.8603 1.6243 0 0zm108.79 0.32039c-5.3761 3.8953 5.7031 3.2252 0 0zm-54.893 0.11162c-3.1775 2.0967 2.9478 2.3363 0 0zm-26.033 0.11576c-3.8262 0.7162-1.3371 5.8332-4.8409 1.4013-6.7682 0.57818 0.09028 7.3846 2.2222 3.7791 5.4528 2.172 8.3723-5.3157 2.6188-5.1804zm-36.653 0.51616c-0.70582 0.98436 0.78366 0.45659 0 0zm25.575 0.28887c-1.3708 0.96747 1.1054 1.0899 0 0zm123.65 0.19586c-3.8269 3.456 6.5869 1.0138 0 0zm-106.16 0.34313c-2.2654 1.5499 2.1398 1.2247 0 0zm-24.568 0.2098c-3.3877 1.9128 3.0064 2.6526 0 0zm67.242 0.19844c-6.3398 0.2915-3.2523 11.706 1.6076 6.0162 3.0669-2.9187 2.8077-5.6507-1.6076-6.0162zm26.729 0.2403c-7.7636 3.8557 6.909 7.313 1.7341 0.92262l-0.61377-0.66734zm-64.462 0.0723c-0.80266 1.4254 1.7322 0.48286 0 0zm-50.417 0.11938c-8.4307 1.9414 5.3101 6.2688 0 0zm18.017 6e-3c-1.6514 1.116 1.5092 1.0326 0 0zm129.97 0.14211c-1.2238 0.67822 0.73734 0.57505 0 0zm-5.1687 7e-3c-0.70595 0.74965 1.1732 0.1114 0 0zm-73.331 0.49609c-3.5618 2.4557 4.0172 2.5844 0 0zm-61.484 0.35347c-3.3076 2.3256 3.5345 2.0934 0 0zm48.063 0.0853c-5.9022 1.9078-2.6893 9.6974-7.5601 12.808-7.791-2.2743-1.8192 6.6501 0.10056 8.5444 4.0345 5.0757-3.0825 11.279-4.684 3.9414-4.728 2.5092-1.2082 6.8695 0.1695 8.0729-3.3536 8.0933 10.327 5.3035 10.689 0.41433 5.7275-3.5576-6.158-3.4991-0.2059-6.1623 3.2415-0.97017 12.515-9.6126 4.442-9.5895-3.024 4.0704-0.59201-4.727 3.2263-3.0836 2.4835-2.6243 1.6416-12.424-2.034-9.0139-1.0885 3.4824-4.7629 4.078-1.7819-0.0107-3.8529 3.7805 0.50558-5.6093-2.3616-5.9212zm-38.68 0.0661c-5.0273 3.3407 4.5745 2.3824 0 0zm34.767 1e-3c-2.3521 1.3436 2.235 1.3421 0 0zm95.752 0.3545c-0.90721 0.42707 0.79182 0.67699 0 0zm-85.94 0.34769c-1.0799 0.59646 1.3036 0.75148 0 0zm-42.355 0.43771c-1.9408 2.4342 2.7094 0.67022 0 0zm124.42 0.0294c-0.0672 0.95091 0.0591 0.16996 0 0zm1.4934 0.15761c-1.0799 0.59645 1.3036 0.75149 0 0zm-62.419 5e-3c-6.2165-1.4093-2.4799 11.348-0.35709 3.1802-0.46667-1.4733 3.6969-1.8466 0.35709-3.1802zm-36.717 0.13384c-1.3858 0.39898 0.97816 0.70261 0 0zm74.396 0.33641c-0.84924 0.7007 1.4685 0.91127 0 0zm-73.092 0.34365c-3.2147 3.0117 3.9711 1.7099 0 0zm44.29 0.0413c-3.1902 3.1376 3.9593 1.7218 0 0zm-18.922 6e-3c-7.5849 1.7955-0.98555 9.1462 0.99012 12.381 7.4034-0.43185 5.0822-8.9741 2.4738-7.0781 1.0989-2.428-0.75006-5.3491-3.4639-5.303zm-14.021 0.0393c-1.7303 2.414 1.6288 1.4734 0 0zm-44.533 0.062c-1.715 0.79751 1.0894 1.2443 0 0zm45.77 0.0543c-1.4426 0.53929 1.5434 1.3834 0 0zm-44.249 0.0786c-0.66675 0.80931 1.3201 0.42332 0 0zm88.986 0.90072c-3.7652 1.3833 4.4811 5.6977-1.8171 2.3092-3.1062-2.3754-11.544-3.1078-8.6494 1.7954-3.5086-0.14503-9.2788-2.5572-4.3253 2.8417 1.3978 3.345 4.9042 4.6858 8.4129 6.1288-6.0179 3.2245 4.2129 10.351 4.3583 2.254-3.4111-4.9196 9.5184-8.5924 5.8442-14.851-2.9241-1.6355-0.95671 4.4006-3.8236-0.47788zm-44.517 0.13849c-0.88808 0.76021 1.0357 0.73152 0 0zm-29.121 0.12506c-2.6253 0.97501 1.8941 1.7076 0 0zm-10.657 0.0791c-1.4356 1.5571 1.9768 0.44642 0 0zm23.942 0.2403c-11.259 2.7215 5.3012 13.747 4.4049 2.5854-1.2077-1.1917-2.505-2.6951-4.4049-2.5854zm-3.7393 0.0496c-1.49 1.0032 1.8998 0.98722 0 0zm-1.5565 0.14676c-3.8744 2.1357 2.9262 2.3722 0 0zm19.704 0.30851c-3.2688 1.4376 2.1193 1.5936 0 0zm54.584 0.34675c-2.4269 0.84773-6.5572 7.5475-1.3286 5.1942 3.4762 1.0748 5.9584-3.7392 1.3286-5.1942zm-85.784 0.95084c-8.7394 2.0123 3.9726 9.2536 2.5877 1.566l-1.0583-1.1072zm110.33 0.91158c-3.821 2.9438 4.4155 2.4503 0 0zm-73.435 0.54467c-2.3358 1.0677 2.5771 1.991 0 0zm-27.731 0.38602c-8.1439 1.7899 2.2997 17.405 1.5415 7.0476 0.22234-2.2705 2.7802-6.6227-1.5415-7.0476zm-24.797 0.1788c-1.6772 0.62554 1.1759 0.98843 0 0zm135.3 4e-3c-3.3586 1.6623 2.6495 2.2619 0 0zm-134.94 0.87695c-1.6486 1.3741 1.82 1.4467 0 0zm-10.32 0.1261c-4.9851 1.7731 1.5572 5.2864 0 0zm15.939 0.0444c-6.6745 1.2309 0.31472 10.889 1.5978 11.267 3.421-1.4194 2.9447-10.092-1.5978-11.267zm99.819 0.12195c-1.7492 1.035 1.5428 0.89294 0 0zm14.908 0.64802c-2.5058 2.0239 2.5886 1.3632 0 0zm-13.023 0.58498c-0.94925 0.33912 0.49234 0.55452 0 0zm-38.596 0.12764c-0.86802 0.79263 0.95605 0.83104 0 0zm-69.683 1.0356c-1.1207 0.59498 1.3009 0.83099 0 0zm74.606 0.55035c-0.89438 2.217 5.3804 1.3946 0 0zm44.837 0.49041c-2.6807 1.6368 2.9184 1.3347 0 0zm-10.142 0.22686c-2.4761 2.2763 2.9098 1.6942 0 0zm18.655 0.0496c-0.66675 0.80931 1.3201 0.42332 0 0zm-21.326 0.0124c-2.668 1.4758 2.6868 1.5184 0 0zm-54.601 0.0506c-1.1233 1.0323 1.5281 0.71804 0 0zm53.16 0.5116c-1.3924 0.53655 1.2638 0.42587 0 0zm23.469 0.12764c-1.5896 1.1919 1.7047 0.86484 0 0zm-2.4334 0.0351c-5.4067 3.2835 4.8434 3.6142 0 0zm-53.484 0.17622c-1.6924 1.0107 1.7147 0.99426 0 0zm26.305 0.0264c-3.415 2.0577 3.234 1.924 0 0zm35.007 1.355c-1.3679 0.43895 0.69097 0.83945 0 0zm-10.801 0.1912c-5.299 2.5191 4.0863 3.8708 0 0zm-18.294 0.27285c-0.94926 0.33911 0.49234 0.55453 0 0zm-56.616 0.28681c-2.002 0.71066 1.482 1.5636 0 0zm14.008 0.0884c-5.2721 3.4768 5.5483 3.4799 0 0zm-79.749 0.10439c-4.9779 2.9269 4.5028 3.6687 0 0zm116.6 0.63769c-3.1664 1.3166 2.3493 2.1332 0 0zm6.3826 0.25011c-3.5888 3.4778 3.69 2.1102 0 0zm-50.532 0.10541c-1.1267 1.0861 1.9926 0.64531 0 0zm63.426 0.30696c-8.5967 0.39224-2.3468 6.4873-0.44751 9.4728 1.1356 3.5118 9.4665-0.36525 7.1582-3.7714-1.2666-0.93592-2.7637-5.9522-6.7107-5.7014zm-115.9 0.0393c-2.431 1.0977 2.1089 2.0392 0 0zm61.508 0.3328c-1.7203 1.3026 1.3499 1.3136 0 0zm-48.872 0.16175c-2.5318 2.081 2.9369 1.5834 0 0zm63.46 0.17725c-0.70593 0.75072 1.1734 0.11049 0 0zm-7.7184 0.1943c-4.8782 4.6479 0.24414 7.8994 4.9785 9.7384 3.4928-0.54963 2.7997-5.2563 7.6638-5.5961-3.2516-3.3122-6.0061-0.93845-9.7706-4.1057-1.2633 1.5256-1.7631-0.1922-2.8717-0.0367zm23.418 0.0279c-3.715 4.1261 7.2021 1.7885 1.0387 0.52355l-0.52144-0.36284zm-28.976 0.27543c-1.5128 2.656 2.6724 0.34815 0 0zm-6.7417 0.11937c-2.2668 0.90247 1.3358 1.7765 0 0zm23.279 0.0806c-2.3583 1.4088 2.638 1.5503 0 0zm49.335 0.39481c-2.0272 1.3232 1.8828 1.3217 0 0zm-66.762 0.96015c-8.0725 5.9468 8.3146 4.9872 3.4458 0.27078-1.5328-0.0809-2.2119 1.1129-3.4458-0.27078zm35.022 0.68006c-1.3573 0.79133 1.2459 0.90276 0 0zm-115.93 0.48937c-2.0288 1.3225 1.8816 1.323 0 0zm74.684 0.0165c-4.3407 3.0598 4.9693 3.2483 0 0zm46.811 0.12299c-0.96193 0.5362 0.4903 0.81476 0 0zm3.4995 0.38241c-1.3131 0.8497 1.6976 0.28542 0 0zm-82.725 0.14572c-1.5963 1.0137 1.0831 0.67768 0 0zm-17.851 0.0992c-1.0931 1.1233 1.4642 0.67455 0 0zm43.243 0.13332c-1.9071 2.0714-2.772 5.4294-2.8383 8.1815 5.0529 3.3892 3.3633-5.7767 7.9045-5.3871-0.41859-6.5431-3.2933 1.2987-5.0662-2.7944zm33.566 0.35141c-3.5034 3.4331 7.3554 4.1634 0 0zm20.72 0.28008c-3.3156 2.2074 2.1508 5.4748 0.49765 6.3319 4.594 0.67709 1.6906-3.1465 2.6003-6.1502-1.1865 0.0275-1.8414 0.76093-3.0979-0.18173zm-8.2574 1.002c-8.0004 6.4954 8.4771 5.6157 0 0zm-94.934 0.26562c-1.6473 1.3744 1.8206 1.4452 0 0zm89.457 0.0718c-5.263 2.9019 4.1318 2.6482 0 0zm43.024 0.0145c-3.4312 0.94384-6.3058 3.2739-6.8818 4.9226-6.6536-1.3713-9.7036 10.96-1.9115 9.936 4.2834 2.2612 6.947-6.7481 4.792-8.7359 1.7061-2.3383 8.8184-0.16235 5.5962-5.5324l-0.8048-0.41972-0.79013-0.17053zm5.1749 0.0512c-6.4835 1.8472 2.1931 10.156 0.29423 1.6013l-0.0679-0.83444zm-71.45 0.0419c-2.5118 1.9705 2.7269 1.4719 0 0zm59.714 0.0357c-2.4816 1.6153 2.2526 1.4244 0 0zm-34.323 0.44287c-2.5898 1.5986 2.4284 1.8874 0 0zm-30.274 0.27078c-6.8466 3.7496 3.9346 7.9755 1.7889 0.51526l-0.95693-0.39847zm49.579 0.33487c-1.0836 0.89425 0.86603 0.64782 0 0zm-116.07 0.46405c-3.7493 1.7156 2.8196 3.1501 0 0zm75.806 0.71985c-2.1298 1.1838 2.0744 1.4693 0 0zm-65.179 0.12661c-5.6769 0.68365-8.3783 12.235-0.65649 7.9589-0.3932-3.5186 6.8683-5.4254 0.65649-7.9589zm10.73 0.55966c-2.6451 1.4313 2.2902 1.6393 0 0zm-19.157 0.3886c-2.6479 1.185 1.9595 1.705 0 0zm72.041 0.34055c-5.4155 2.3863 4.1549 3.0222 0 0zm-67.784 0.0548c-2.3343 1.143 1.9637 1.7366 0 0zm51.188 0.48111c-5.3598 1.4304 4.769 9.7078 3.7491 1.1158-0.10696-1.6263-2.8378-0.43898-3.7491-1.1158zm38.793 0.063c-3.1458 1.7582 2.7833 1.9974 0 0zm-10.311 0.0103c-1.0799 0.59644 1.3036 0.75148 0 0zm-7.6218 0.75085c-1.7515 1.3961 1.7244 1.0163 0 0zm-74.31 7e-3c-2.5208 1.7834 2.456 1.9925 0 0zm-15.238 0.59945c-7.4623 5.274 7.5737 4.1552 0 0zm111.52 0.0842c-1.1101 6.1577 8.9755-0.31485 0.43098 0.0522zm-18.536 0.14625c-1.8744 1.5712 2.017 1.3754 0 0zm-81.622 0.46302c-2.5357 1.9918 2.1963 1.716 0 0zm88.197 0.0429c-1.8982 0.79633 1.3486 1.6883 0 0zm-65.401 0.0134c-3.8542 1.3846 2.9278 3.1629 0 0zm50.001 0.29301c-3.2028 1.5993 2.7308 1.4572 0 0zm-10.592 0.10542c-0.74476 0.91322 1.1553 0.69789 0 0zm1.571 0.0625c-1.7939 1.2397 1.7979 1.2418 0 0zm-44.575 0.13332c-1.8655 0.869 1.804 0.99656 0 0zm66.61 8e-3c-3.2449 2.6129 3.5011 2.3722 0 0zm-36.982 0.14572c-0.88817 0.76017 1.0344 0.73202 0 0zm19.309 0.0217c-1.6928 1.0113 1.7159 0.99353 0 0zm-40.941 0.14986c-1.7458 1.2889 1.0909 0.54913 0 0zm77.952 0.0517c-1.4252 1.5256 1.7084 0.79156 0 0zm-54.274 0.27027c-4.5936 2.258 1.2227 5.0842 0 0zm38.021 0.16226c-2.1531 0.7315-0.52082 1.2102 0 0zm-90.781 0.25373c-3.9975 1.4795 3.3224 2.0937 0 0zm70.317 0.20412c-5.3799 3.3985 5.235 3.594 0 0zm-3.0339 2e-3c-1.5853 2.5274 2.6897 0.85716 0 0zm28.4 0.13229c-2.3841 1.1911 1.6055 2.2787 0 0zm13.302 8e-3c-0.90577 0.42769 0.79153 0.67641 0 0zm-72.791 0.0284c-0.90606 0.42894 0.7929 0.67505 0 0zm39.012 0.43201c-3.6601 1.4654 2.3156 1.2801 0 0zm2.0944 0.28939c-1.1428 0.85824 0.84345 0.53926 0 0zm-20.11 0.50178c-2.8571 1.8454 2.889 1.9766 0 0zm51.092 0.43977c-1.5147 1.2254 1.2947 1.1679 0 0zm-35.421 0.16794c-5.019 2.3225 1.6394 2.1345 0 0zm-9.7033 0.0698c-1.2016 0.87042 1.3082 0.76337 0 0zm-36.822 0.78548c-0.82903 0.67965 1.1541 0.48278 0 0zm66.966 0.3514c-2.484 1.8174 2.3176 1.1268 0 0zm-3.2401 0.15761c-5.8118 4.415 6.3142 3.085 0 0zm-35.163 0.32763c-3.1315 1.3194 1.953 2.078 0 0zm50.905 0.10439c-1.1306 0.10751 0.68118 0.72299 0 0zm-39.414 8e-3c-1.3298 1.2506 1.9237 1.1049 0 0zm-39.62 0.0475c-4.0339 2.111 3.6115 2.7207 0 0zm43.499 0.11317c-2.1476 3.1674-11.274 3.9134-5.8648 8.617 3.6163 3.7611 8.8218-2.5161 6.8901-3.4668 2.9942-0.66911 1.9126-5.5304-1.0254-5.1502zm49.934 0.37052c-3.3127 2.4587 3.6705 1.9958 0 0zm-67.38 0.14779c-3.6032 2.2273 2.9041 2.1265 0 0zm46.69 0.48938c-4.3755 2.8861 4.6961 2.5936 0 0zm-49.604 0.29507c-1.4313 0.28268 1.2233 0.61205 0 0zm-27.754 0.45527c-1.0801 0.59331 1.3057 0.75488 0 0zm82.778 0.20102c-2.0619 2.0278 2.3029 1.278 0 0zm-56.713 0.33538c-3.7728 4.5377 5.7379 0.18974 0 0zm-36.649 0.12558c-6.8852 1.9604 2.7638 8.1842 2.0883 1.3535-0.3634-0.79664-1.1993-1.4019-2.0883-1.3535zm75.387 0.11213c-4.8176 2.2138-7.6399 11.835 0.31368 10.443 1.4403-3.2571 7.9714-9.6662-0.31368-10.443zm-35.052 0.14367c-3.9937 2.5838 4.1218 2.5559 0 0zm-12.283 0.60978c-2.8237 2.1087 3.7974 2.3819 0-1e-5zm3.1755 0.28629c-1.6712 1.691 3.5506 0.81103 0 0zm84.766 0.12402c-7.6263 2.8151-1.4263 8.4231-1.9223 12.359 6.0382 3.4597 3.5848-6.1943 6.1574-8.9154-0.65003-1.7734-2.2407-3.4161-4.2351-3.4438zm-34.303 0.0718c-1.3689 0.44037 0.69273 0.83857 0 0zm-35.076 0.30231c-8.229 6.9828 10.235 2.79 0-2e-5zm16.101 0.43511c-2.13 1.1825 2.074 1.4707 0 0zm4.3186 0.0357c-2.2234 1.3124 2.3273 1.3474 0 0zm-46.581 0.2775c-3.1882 2.5523 3.3555 2.2282 0 0zm48.533 0.41548c-2.6974 3.3961 3.3117 0.65343 0 0zm32.031 0.51831c-1.3406 1.2825 0.64884 1.6051 0 0zm-67.836 0.12919c-3.2728 2.0622 3.3537 2.3855 0 0zm29.374 0.19017c-4.0489 2.8712 4.3429 3.4361 0 0zm-21.789 0.0563c-1.9245 2.057 2.6381 0.9542 0 0zm62.32 0.26872c-5.3443 3.7885 6.2584 3.8961 0 0zm-78.537 0.0398c-2.1298 1.1817 2.0747 1.471 0 0zm65.896 0.24856c-1.0798 0.59543 1.3037 0.75384 0 0zm-55.057 0.90589c-2.5212 1.5466 2.2754 1.5783 0 0zm-46.088 0.1664c-4.5113 3.9907 5.1455 2.8069 0 0zm70.661 0.36793c-3.5884 2.9131 4.2002 2.2508 0 0zm4.8374 0.61185c-1.799 4.2517 5.2496 1.5658 0 0zm36.129 0.56793c-0.74477 0.91322 1.1553 0.6979 0 0zm-21.774 7e-3c-1.5964 1.0139 1.0844 0.6773 0 0zm-66.175 0.29042c-7.8585 4.8746 5.2944 5.1261 0 0zm77.23 0.60617c-0.90607 0.42892 0.7929 0.67506 0 0zm-49.944 0.22117c-3.6446 3.1279 3.9238 2.031 0 0zm38.794 0.0734c-1.7193 1.3024 1.35 1.3136 0 0zm-9.5193 0.89503c-0.90606 0.42894 0.7929 0.67506 0 0zm-69.562 0.11214c-8.7146 2.6302 4.7315 10.77 2.8534 1.7945-0.50224-1.0812-1.661-1.8125-2.8534-1.7945zm45.807 0.85576c-1.0798 0.59543 1.3037 0.75384 0 0zm-5.3315 0.1292c-3.8322 1.9546 2.6988 2.6316 0 0zm-50.211 0.15451c-4.6525 2.6265 4.1998 3.0252 0 0zm89.218 0.13125c-6.0907 0.93415-6.1058 10.698-2.9362 13.081-4.0746 3.6761 5.3199 1.4977 6.2987-0.66037 6.742-3.2164 2.4335-11.969-3.3625-12.421zm-29.024 0.81546c-2.667 1.4772 2.6877 1.5164 0 0zm8.6098 1.1663c-1.3674 1.5513 1.9786 0.84366 0 0zm35.443 0.10903c-3.2295 2.1195 3.0984 2.0638 0 0zm-31.288 0.34882c-5.042 2.2091 6.3319 2.9531 0 0zm-50.063 0.13849c-2.1754 1.9273 2.1384 1.0903 0 0zm37.293 0.0155c-3.398 2.3176 2.3355 2.6834 0 0zm22.745 0.80666c-2.3607 1.028 2.3391 1.7974 0 0zm-35.409 0.13746c-0.90606 0.42894 0.79289 0.67506 0 0zm-40.823 0.14677c-3.6899 2.368 3.2477 2.1582 0 0zm119.29 0.5643c-8.4553 2.8035 1.9328 13.318 3.4846 3.1121-0.28395-1.6682-1.688-3.1428-3.4846-3.1121zm-19.168 0.11524c-1.4193 0.56006 1.4089 0.87322 0 0zm-75.585 0.0465c-2.1619 1.383 2.4114 1.759 0 0zm85.598 0.12971c-2.8275 1.6358 2.5845 2.2503 0 0zm-51.528 0.55035c-1.2224 0.67878 0.73679 0.57454 0 0zm43.934 0.44338c-2.5469 2.8965 0.92003 5.8988-2.6082 8.6233 3.3008 2.3553 6.8105 0.0213 5.4075 5.5144 3.972 8.7112 14.032-5.3537 7.4285-5.9903-5.59 2.1293-3.2251-7.8599-9.2031-4.5413-0.63801-1.1849 0.94723-3.2865-1.0247-3.606zm-33.165 0.0563c-4.2607 2.1616 3.813 2.6473 0 0zm-9.046 0.29301c-4.2803 2.1685-5.4354 6.7372-0.9691 1.6298-0.71698 0.56964 2.0246-1.4493 0.9691-1.6298zm-26.027 0.35088c-1.3298 1.2506 1.9237 1.1049 0 0zm20.64 0.15399c-1.867 0.59931-1.1956 1.7409 0 0zm-46.8 0.4253c-3.5903 1.4419 2.8159 2.4669 0 0zm52.929 0.79944c-2.4901 1.9287 2.396 1.131 0 0zm-46.68 0.13332c-9.8112 0.90604 1.0822 13.658 3.8427 4.037 2.0536-1.7616-2.6783-3.6484-3.8427-4.037zm36.159 0.26924c-1.7024 0.96959 2.112 1.0263 0 0zm44.392 0.27233c-2.7097 1.1385 2.3398 1.8233 0 0zm18.401 5e-3c-5.4012 4.1038 6.788 5.7516 0 0zm-67.42 0.92449c-6.0143 2.8248 3.4559 7.5514 1.2842 0.62322l-0.95963-0.59067zm19.426 7e-3c-4.0545 2.2665 3.1541 2.3604 0 0zm9.6857 0.3824c-2.6854 6.5328 6.3895 2.7759 0 0zm-53.371 0.41962c-5.4092 3.2981 8.3994 3.6043 0 0zm13.551 0.24184c-1.7615 1.1569 1.7484 0.66816 0 0zm74.932 0.076c-1.3687 0.43988 0.69293 0.83847 0 0zm-12.64 0.0491c-4.8608 5.017 6.074 2.4581 0 0zm-26.68 0.29559c-2.6564 4.6083 4.3386 1.6979 0 0zm-27.607 0.0486c-3.6602 1.4792 3.0939 1.4372 0 0zm-13.623 0.28371c-3.5453 1.4162 2.7065 3.0228 0 0zm39.146 9e-3c-1.4157 0.63614 1.1962 1.1996 0 0zm42.705 0.22635c-2.2442 0.63057 1.3597 1.4967 0 0zm-58.491 0.0139c-3.3586 1.6614 2.6493 2.2627 0 0zm13.261 0.91881c-3.7815 3.0605-2.9393 7.1044-5.202 9.827 4.8636 2.5702 16.261 9.0589 17.465 0.0979-1.3755-1.2182-0.91191-12.785-7.0483-6.4435-1.1136 2.1398 2.9372 6.5368-0.97778 4.1161 1.1097-7.006-0.28036-4.4145-4.2369-7.5975zm-11.75 0.0481c-1.6472 1.3752 1.8206 1.4457 0 0zm-27.406 0.15813c-2.8327 1.9399 2.5523 2.9993 0 0zm9.8397 0.26769c-1.0799 0.59644 1.3036 0.75147 0 0zm48.612 0.091c-0.74259 0.91485 1.1542 0.69665 0 0zm-52.314 0.64699c-1.9812 1.5545 4.212 1.6059 0 0zm7.6486 0.85369c-1.7237 1.503 2.0054 1.3191 0 0zm45.555 0.15968c-8.877 1.9699 3.0355 13.44 4.4002 6.3826-2.3364-0.94846-2.8805 1.2983-1.2413-2.6856-0.13475-1.7017-1.4065-3.4243-3.159-3.6969zm-38.655 0.18448c-2.9687 2.5265 2.986 2.3033 0 0zm46.841 1.1927c-0.70593 0.98547 0.78537 0.45524 0 0zm1.5668 0.39532c-1.0799 0.59645 1.3036 0.75148 0 0zm-64.146 0.0227c-1.9832 0.33916 1.3 2.0275 0 0zm59.434 0.0351c-1.4376 1.2603 1.5955 0.56411 0 0zm-43.959 0.58963c-2.162 1.3822 2.4098 1.7604 0 0zm-5.0591 0.14676c-2.202 0.57625-0.11441 1.3347 0 0zm13.682 0.18604c-2.3304 1.185 1.8356 1.544 0 0zm-5.5149 0.0909c-1.1205 1.0989 1.6983 0.85409 0 0zm-12.291 0.61753c-4.2603 2.1715 2.9604 3.2062 0 0zm54.154 0.64131c-4.7836 2.6044 4.6116 3.3164 0 0zm-56.637 0.51211c-3.479 1.6409 2.5332 0.83595 0 0zm14.283 0.0522c-3.6878 1.5607 2.3566 2.6967 0 0zm-15.146 1.509c-0.51244 0.57477 0.98415 0.35236 0 0z" opacity=".2"/>
 </g>
</svg>
