<?xml version="1.0" encoding="UTF-8"?>
<svg width="1920" height="1200" version="1.1" viewBox="0 0 508 317.5" xmlns="http://www.w3.org/2000/svg" xmlns:cc="http://creativecommons.org/ns#" xmlns:dc="http://purl.org/dc/elements/1.1/" xmlns:rdf="http://www.w3.org/1999/02/22-rdf-syntax-ns#" xmlns:xlink="http://www.w3.org/1999/xlink">
 <metadata>
  <rdf:RDF>
   <cc:Work rdf:about="">
    <dc:format>image/svg+xml</dc:format>
    <dc:type rdf:resource="http://purl.org/dc/dcmitype/StillImage"/>
    <dc:title/>
   </cc:Work>
  </rdf:RDF>
 </metadata>
 <defs>
  <filter id="filter989" color-interpolation-filters="sRGB">
   <feGaussianBlur result="blur" stdDeviation="3 3"/>
  </filter>
 </defs>
 <path id="layer5" transform="scale(.26458)" d="m0 0v1200h1920v-217.32a713.23 689.46 0 0 1-0.0059 0.00391 713.23 689.46 0 0 1-54.209 41.356 713.23 689.46 0 0 1-3.4395 2.3789 713.23 689.46 0 0 1-54.506 33.633 713.23 689.46 0 0 1-7.6054 4.2187 713.23 689.46 0 0 1-53.529 26.162 713.23 689.46 0 0 1-12.396 5.3614 713.23 689.46 0 0 1-51.32 19.137 713.23 689.46 0 0 1-17.719 5.6914 713.23 689.46 0 0 1-48.078 12.77 713.23 689.46 0 0 1-23.293 5.0528 713.23 689.46 0 0 1-43.959 7.2109 713.23 689.46 0 0 1-28.975 3.4004 713.23 689.46 0 0 1-48.332 3.1894 713.23 689.46 0 0 1-20.576 0.7051 713.23 689.46 0 0 1-141.7-13.744 713.23 689.46 0 0 1-136.05-40.682 713.23 689.46 0 0 1-280.95-206.46 713.23 689.46 0 0 1 0-0.00196 713.23 689.46 0 0 1-154.54-428.57 713.23 689.46 0 0 1 186.34-463.48h-925.16z" filter="url(#filter989)" stroke-width="3.7795"/>
 <path id="layer4" d="m379.28-68.236c-71.627 1.2858-141.81 43.786-173.11 108.75-26.896 54.329-25.38 121.94 5.4294 174.37 33.135 58.345 97.899 96.685 164.89 98.47 64.648 2.5167 130.45-27.361 168.45-80.237 33.964-46.086 45.736-108.14 28.795-163.08-17.707-59.885-66.462-109.2-125.96-128.01-22.032-7.2619-45.297-10.752-68.49-10.266zm20.098 92.633c41.064 0.1125 77.284 36.56 78.527 77.094 2.5185 38.108-23.99 76.976-62.037 85.021-33.257 7.9198-70.878-8.2792-87.016-38.984-17.657-31.212-13.128-73.907 12.906-99.132 15.085-15.272 36.018-24.538 57.62-23.999z" filter="url(#filter989)" style="font-variant-east_asian:normal"/>
 <path id="layer3" transform="scale(.26458)" d="m1504.4 60.023a334.33 342.45 0 0 0-0.0312 0.001953 334.33 342.45 0 0 1 0.1777 0.005859 334.33 342.45 0 0 0-0.1465-0.007812zm-0.3027 0.011718a334.33 342.45 0 0 0-28.957 1.543 334.33 342.45 0 0 1 28.957-1.543zm28.68 1.4434a334.33 342.45 0 0 1 17 2.1133 334.33 342.45 0 0 0-17-2.1133zm-70.91 1.75a334.33 342.45 0 0 0-20.676 3.2441 334.33 342.45 0 0 1 20.676-3.2441zm103.91 2.8398a334.33 342.45 0 0 1 16.996 3.9082 334.33 342.45 0 0 0-16.996-3.9082zm-134.87 2.7695a334.33 342.45 0 0 0-22.984 6.0605 334.33 342.45 0 0 1 22.984-6.0605zm167.28 5.1699a334.33 342.45 0 0 1 16.781 5.7109 334.33 342.45 0 0 0-16.781-5.7109zm-197.63 3.3984a334.33 342.45 0 0 0-24.871 9.3574 334.33 342.45 0 0 1 24.871-9.3574zm229.1 7.8008a334.33 342.45 0 0 1 16.439 7.5352 334.33 342.45 0 0 0-16.439-7.5352zm-258.79 3.7656a334.33 342.45 0 0 0-25.281 12.516 334.33 342.45 0 0 1 25.281-12.516zm289 10.586a334.33 342.45 0 0 1 15.889 9.3359 334.33 342.45 0 0 0-15.889-9.3359zm-314.67 2.1562a334.33 342.45 0 0 0-175.13 300.76 334.33 342.45 0 0 0 334.33 342.45 334.33 342.45 0 0 0 322.94-255.44 334.33 342.45 0 0 1-9.875 31.789 334.33 342.45 0 0 1-159.13 41.648 334.33 342.45 0 0 1-334.33-342.45 334.33 342.45 0 0 1 21.189-118.76zm343.35 15.213a334.33 342.45 0 0 1 15.084 11.049 334.33 342.45 0 0 0-15.084-11.049zm26.865 20.223a334.33 342.45 0 0 1 14.105 12.693 334.33 342.45 0 0 0-14.105-12.693zm24.75 22.848a334.33 342.45 0 0 1 12.99 14.285 334.33 342.45 0 0 0-12.99-14.285zm22.406 25.262a334.33 342.45 0 0 1 11.674 15.73 334.33 342.45 0 0 0-11.674-15.73zm19.85 27.441a334.33 342.45 0 0 1 10.176 17 334.33 342.45 0 0 0-10.176-17zm17.088 29.342a334.33 342.45 0 0 1 8.5157 18.057 334.33 342.45 0 0 0-8.5157-18.057zm14.152 30.957a334.33 342.45 0 0 1 6.75 18.941 334.33 342.45 0 0 0-6.75-18.941zm11.064 32.242a334.33 342.45 0 0 1 4.8985 19.652 334.33 342.45 0 0 0-4.8985-19.652zm7.8692 33.205a334.33 342.45 0 0 1 2.9765 20.176 334.33 342.45 0 0 0-2.9765-20.176zm4.5996 33.861a334.33 342.45 0 0 1 1.4726 30.162 334.33 342.45 0 0 1-0.1074 3.5527 334.33 342.45 0 0 0 0.1738-3.5527 334.33 342.45 0 0 0-1.539-30.162zm0.3867 53.77a334.33 342.45 0 0 1-2.6543 25.064 334.33 342.45 0 0 0 2.6543-25.064zm-3.668 31.936a334.33 342.45 0 0 1-6.0742 29.457 334.33 342.45 0 0 0 6.0742-29.457z" stroke-width="3.7795" style="font-variant-east_asian:normal"/>
 <path id="layer2" d="m398.01 15.352c-5.0802 0.22115-10.16 0.44307-15.157 1.4609-4.1186 0.6309-8.1466 1.8381-12.124 3.046-4.6421 1.6308-9.1898 3.4792-13.522 5.8226-1.8656 0.33309-2.1315 2.0304-2.5604 3.5888-1.7872 5.0612-2.8709 10.319-3.7992 15.593-0.75499 6.2306-1.3822 12.506-0.79094 18.781 0.11596 4.6579 0.93882 9.2747 1.776 13.844 1.0968 4.7644 2.3462 9.4829 4.1668 14.029 1.4037 3.9503 3.3281 7.7158 5.2458 11.434 2.4248 4.2285 4.9893 8.3637 8.0495 12.168 2.4788 3.3344 5.3937 6.3468 8.2935 9.3113 3.5456 3.3154 7.2044 6.4913 11.234 9.2114 3.323 2.4239 6.9652 4.4152 10.58 6.3611 4.3542 2.1025 8.7789 4.0279 13.42 5.4095 3.868 1.3034 7.9101 2.1027 11.912 2.863 6.4065 0.94449 12.893 1.51 19.362 0.90957 4.5184-0.13665 8.9929-0.98388 13.416-1.8475 4.6924-1.1366 9.3259-2.4571 13.782-4.3339 3.4934-1.2252 6.6791-3.1588 10.03-4.7114 1.5821-4.9784 3.2162-9.9433 4.0431-15.116 0.92125-4.3759 1.2531-8.8693 1.5568-13.324 0.17997-4.5993-0.11131-9.2241-0.57274-13.796-0.62116-4.8537-1.4818-9.6592-2.8481-14.363-0.48848-2.2347-1.2865-4.3806-1.9657-6.5607-0.54325-0.72425-1.1929-2.9552-1.777-4.2579 0.15349-1.6642-2.3666-3.2273-1.4828-0.88425 0.90448 2.3121 1.809 4.6243 2.7135 6.9364 0.0385 1.0764-0.68394 3.0284-0.92728 4.4291-3.3824 11.838-11.521 22.243-22.333 28.178-10.701 5.97-23.799 7.3622-35.52 3.7825-11.819-3.5761-22.001-12.073-27.675-23.038-6.3136-11.986-7.103-26.699-2.0569-39.279 5.0629-13.072 16.322-23.573 29.784-27.556 2.0577-0.54481 4.2384-1.2686 6.3245-1.3295 1.9804 0.84709 3.9609 1.6942 5.9414 2.5413 1.2276-1.7015-2.0612-1.5927-2.9893-2.4302-1.2957-0.57223-1.939-0.98152-3.4792-1.426-4.6612-1.5615-9.34-3.057-14.201-3.8633-4.2425-0.89778-8.6034-1.2157-12.924-1.5022-0.99192-0.0037-1.9924-0.09489-2.9255-0.08161zm37.667 9.8283c2.3101 1.2612 4.6202 2.5225 6.9303 3.7837 1.3842-1.5763-1.9-1.782-2.7437-2.7042-1.3032-0.26683-3.2617-2.7659-4.0596-1.3121l-0.12681 0.23221zm7.6864 4.2266c2.2234 1.5238 4.4469 3.0475 6.6704 4.5713 1.5359-1.4289-1.7107-1.9646-2.4571-2.9673-1.2656-0.47119-2.8753-2.7848-3.914-2.0408l-0.14955 0.21826-0.14957 0.21826zm7.2512 4.9956c2.1018 1.7759 4.2037 3.5519 6.3056 5.3278 1.5675-1.3205-1.6217-2.2417-2.3483-3.3697-1.1855-0.55262-2.5344-3.0516-3.6157-2.3623l-0.17082 0.20207zm6.7345 5.7123c1.9423 2.0068 3.8847 4.0135 5.827 6.0203 1.7902-1.0931-1.2845-2.2662-1.8155-3.3975-1.1492-0.92612-2.2815-2.8754-3.441-3.1747-0.19016 0.18397-0.38034 0.36794-0.5705 0.55191zm6.1604 6.3846c1.7518 2.214 3.5037 4.428 5.2555 6.642 1.7983-0.98287-1.1445-2.5189-1.6327-3.7686-1.0181-0.96808-1.9087-3.0285-3.0004-3.3656-0.20746 0.16406-0.41492 0.32812-0.62238 0.49218zm5.5118 6.9861c1.5336 2.3921 3.0672 4.7842 4.6008 7.1763 1.9705-0.71861-0.81121-2.4757-1.1083-3.6899-0.86719-1.3527-1.7344-2.7053-2.6016-4.058-0.29697 0.19052-0.59394 0.38103-0.89091 0.57154zm4.8116 7.5267c1.2922 2.5354 2.5845 5.0708 3.8768 7.6063 1.956-0.61068-0.62677-2.6951-0.85963-4.0166-0.81539-1.1772-1.2996-3.3745-2.3103-3.9501-0.23564 0.12014-0.47125 0.24027-0.70686 0.36041z"/>
 <path id="layer1" d="m428.41 21.462a46.921 47.482 0 0 0-39.806 46.897 46.921 47.482 0 0 0 46.921 47.482 46.921 47.482 0 0 0 46.092-38.761 88.457 90.605 0 0 0-53.21-55.617z" style="font-variant-east_asian:normal"/>
 <animate attributeName="opacity" dur="3s" repeatCount="indefinite" values="0;.6;0" xlink:href="#layer1"/>
 <animate attributeName="opacity" dur="4s" repeatCount="indefinite" values=".6;0;.6" xlink:href="#layer2"/>
 <animate attributeName="opacity" dur="7s" repeatCount="indefinite" values="0;.6;0" xlink:href="#layer3"/>
 <animate attributeName="opacity" dur="5s" repeatCount="indefinite" values=".6;0;.6" xlink:href="#layer4"/>
 <animate attributeName="opacity" dur="4s" repeatCount="indefinite" values="0;.6;0;.3;0" xlink:href="#layer5"/>
</svg>
